<?xml version="1.0" standalone="no"?><!DOCTYPE svg PUBLIC "-//W3C//DTD SVG 1.1//EN" "http://www.w3.org/Graphics/SVG/1.1/DTD/svg11.dtd"><svg class="icon" width="48px" height="48.00px" viewBox="0 0 1024 1024" version="1.1" xmlns="http://www.w3.org/2000/svg"><path d="M731.5456 931.1232H294.4c-110.08 0-199.3728-89.2416-199.3728-199.3728V294.656c0-110.08 89.2416-199.3728 199.3728-199.3728h437.0944c110.08 0 199.3728 89.2416 199.3728 199.3728v437.0944c0 110.1312-89.2416 199.3728-199.3216 199.3728z" fill="#FF9100" /><path d="M713.0624 931.1232h-446.464c-94.7712 0-171.5712-76.8-171.5712-171.5712v-446.464c0-94.7712 76.8-171.5712 171.5712-171.5712h446.464c94.7712 0 171.5712 76.8 171.5712 171.5712v446.464c0 94.7712-76.8 171.5712-171.5712 171.5712z" fill="#F6E937" /><path d="M537.3952 270.3872l35.0208 71.7824a37.504 37.504 0 0 0 28.2112 20.736l78.2848 11.52c30.7712 4.5056 43.0592 42.752 20.7872 64.7168L643.072 495.0016c-8.8576 8.704-12.8512 21.248-10.8032 33.5872l13.3632 78.848c5.2736 30.976-26.88 54.6304-54.4256 39.9872l-70.0416-37.2224a37.29408 37.29408 0 0 0-34.9184 0l-70.0416 37.2224c-27.4944 14.6432-59.648-9.0112-54.4256-39.9872l13.3632-78.848c2.0992-12.288-1.9456-24.8832-10.8032-33.5872L307.8144 439.1424c-22.272-21.9648-9.984-60.2112 20.7872-64.7168l78.2848-11.52a37.4528 37.4528 0 0 0 28.2112-20.736l35.0208-71.7824c13.7728-28.2112 53.504-28.2112 67.2768 0z" fill="#DD2719" /><path d="M521.216 300.0832l32.6656 66.2016c5.12 10.3424 14.9504 17.4592 26.3168 19.1488l73.0112 10.5984c28.672 4.1472 40.1408 39.424 19.4048 59.648l-52.8384 51.5072a35.01568 35.01568 0 0 0-10.0864 30.976l12.4928 72.7552c4.9152 28.5696-25.088 50.3808-50.7392 36.864l-65.3312-34.3552a34.88768 34.88768 0 0 0-32.5632 0l-65.3312 34.3552c-25.6512 13.5168-55.6544-8.2944-50.7392-36.864l12.4928-72.7552c1.9456-11.3664-1.792-22.9376-10.0864-30.976L307.0464 455.68c-20.7872-20.224-9.3184-55.5008 19.4048-59.648l73.0112-10.5984a34.79552 34.79552 0 0 0 26.3168-19.1488l32.6656-66.2016c12.8512-26.0096 49.9712-26.0096 62.7712 0z" fill="#EB543D" /><path d="M697.1904 836.5056h-414.72c-19.8144 0-35.84-19.9168-35.84-44.4928s16.0256-44.4928 35.84-44.4928h414.72c19.8144 0 35.84 19.9168 35.84 44.4928s-16.0256 44.4928-35.84 44.4928z" fill="#FCB423" /><path d="M697.1904 802.9184h-414.72c-19.8144 0-35.84-16.0256-35.84-35.84s16.0256-35.84 35.84-35.84h414.72c19.8144 0 35.84 16.0256 35.84 35.84s-16.0256 35.84-35.84 35.84z" fill="#FFFFFF" /></svg>