<?xml version="1.0" standalone="no"?><!DOCTYPE svg PUBLIC "-//W3C//DTD SVG 1.1//EN" "http://www.w3.org/Graphics/SVG/1.1/DTD/svg11.dtd"><svg class="icon" width="48px" height="48.00px" viewBox="0 0 1024 1024" version="1.1" xmlns="http://www.w3.org/2000/svg"><path d="M889.6 582.7072c0 157.2352-209.8176 296.8576-315.4944 357.1712a118.05184 118.05184 0 0 1-118.0672-0.6656c-105.472-61.8496-316.1088-204.3392-316.1088-356.5056V195.6864c0-28.8256 23.0912-52.48 52.3776-53.5552 65.4336-2.3552 183.1424-14.592 300.544-66.6112 13.9776-6.1952 29.952-6.3488 44.0832-0.4096 117.9648 49.7664 235.8784 62.8736 301.056 66.0992 28.928 1.4336 51.6096 24.9856 51.6096 53.504v387.9936z" fill="#402AD2" /><path d="M857.4464 588.3392c0 146.1248-191.8464 275.8656-288.4608 331.9808a106.45504 106.45504 0 0 1-107.9808-0.6144C364.544 862.2592 172.032 729.8048 172.032 588.3904V228.6592c0-26.7776 21.1456-48.7936 47.872-49.7664 59.8016-2.2016 167.424-13.568 274.7904-61.9008a50.16064 50.16064 0 0 1 40.2944-0.3584c107.8272 46.2848 215.6544 58.4704 275.2512 61.44 26.4704 1.3312 47.2064 23.2448 47.2064 49.7152v360.5504z" fill="#534FFF" /><path d="M787.6096 566.8864c0 111.5136-151.296 210.4832-227.4816 253.2864-26.368 14.7968-58.9312 14.6432-85.1456-0.4608-76.032-43.8272-227.8912-144.896-227.8912-252.8256v-274.432c0-20.4288 16.64-37.2224 37.7344-37.9904 47.1552-1.6896 132.0448-10.3424 216.6784-47.2064a40.448 40.448 0 0 1 31.744-0.256c85.0432 35.328 170.0864 44.5952 217.088 46.8992 20.8896 1.024 37.2224 17.7152 37.2224 37.9392v275.0464z" fill="#E51F4E" /><path d="M760.0128 583.424c0 104.5504-137.216 197.3248-206.336 237.4656a76.0832 76.0832 0 0 1-77.2096-0.4608c-68.9664-41.1136-206.6944-135.8336-206.6944-237.0048V326.144c0-19.1488 15.104-34.8672 34.2528-35.584 42.8032-1.5872 119.7568-9.6768 196.5568-44.288 9.1648-4.096 19.6096-4.1984 28.8256-0.256 77.1584 33.0752 154.2656 41.8304 196.864 43.9296 18.944 0.9728 33.7408 16.64 33.7408 35.584v257.8944z" fill="#F5536C" /><path d="M286.6688 512l-16.896 25.1392v21.1968h245.0944v-21.1968l-7.68-24.064z" fill="#EF3360" /><path d="M514.8672 517.5296h245.1456v26.368h-245.1456z" fill="#FF9100" /><path d="M514.8672 537.1392V243.0976c-4.9152 0.0512-9.7792 1.1264-14.336 3.1744-76.8 34.56-153.7536 42.7008-196.5568 44.288a35.57888 35.57888 0 0 0-34.2528 35.584v210.9952h245.1456zM514.8672 537.1392v293.9904c13.3632 0.1024 26.7776-3.328 38.8096-10.2912 69.12-40.0896 206.336-132.9152 206.336-237.4656v-46.2848h-245.1456z" fill="#F6E937" /></svg>