<?xml version="1.0" standalone="no"?><!DOCTYPE svg PUBLIC "-//W3C//DTD SVG 1.1//EN" "http://www.w3.org/Graphics/SVG/1.1/DTD/svg11.dtd"><svg class="icon" width="48px" height="48.00px" viewBox="0 0 1024 1024" version="1.1" xmlns="http://www.w3.org/2000/svg"><path d="M66.048 352.8704l220.2624-251.3408c12.6976-14.4384 30.8224-22.7328 49.92-22.7328h359.8848c18.7904 0 36.7616 8.0384 49.408 22.1696l225.8944 251.8528c22.9888 25.6 23.1936 64.6656 0.5632 90.5728l-402.7904 460.1856c-37.7344 43.4176-86.1696 39.4752-112.7424 9.1136l-399.3088-451.072c-22.528-25.7536-29.696-64.6656 8.9088-108.7488z" fill="#7518ED" /><path d="M65.2288 388.6592L275.0976 152.576c12.0832-13.568 29.3888-21.3504 47.5648-21.3504h342.8864c17.92 0 35.0208 7.5776 47.0528 20.7872l215.1936 236.5952c21.8624 24.064 22.1184 60.7232 0.512 85.0432l-383.744 432.2304c-25.2928 28.5184-69.8368 28.5184-95.1296 0L65.2288 473.1392c-21.4016-24.064-21.4016-60.416 0-84.48z" fill="#9539FC" /><path d="M250.4704 414.9248L382.3616 262.656c6.8096-7.9872 16.5888-12.544 26.8288-12.544h193.4336c10.0864 0 19.7632 4.4544 26.5728 12.2368l121.4464 138.9568c12.3392 14.1312 12.4928 35.6864 0.3072 49.9712l-216.5248 253.952c-14.2848 16.7424-39.424 16.7424-53.7088 0l-230.2464-240.64c-12.0832-14.1824-12.0832-35.4816 0-49.664z" fill="#FF9100" /><path d="M263.3728 433.2544l110.848-124.7232c6.4-7.168 15.5136-11.264 25.1392-11.264h181.0944c9.472 0 18.4832 3.9936 24.8832 11.008l113.664 124.9792a33.54624 33.54624 0 0 1 0.256 44.9024l-202.7008 228.3008c-13.3632 15.0528-36.9152 15.0528-50.2784 0L263.3728 477.9008a33.60256 33.60256 0 0 1 0-44.6464z" fill="#F6E937" /></svg>